<svg width="96" height="80" viewBox="0 0 96 80" fill="none" xmlns="http://www.w3.org/2000/svg">
<path d="M34.3419 79.58C33.8808 79.5801 33.4258 79.4739 33.0123 79.2696C32.5988 79.0653 32.238 78.7684 31.9579 78.402L1.59994 38.692C1.11825 38.0604 0.906701 37.2636 1.01168 36.4762C1.11666 35.6889 1.5296 34.9753 2.15994 34.492L15.4299 24.344C16.0618 23.8625 16.8588 23.6513 17.6461 23.7567C18.4335 23.862 19.1469 24.2754 19.6299 24.906L35.8459 46.106L77.6239 1.372C78.1669 0.790405 78.9186 0.448287 79.7137 0.420907C80.5088 0.393527 81.2823 0.683127 81.8639 1.226L94.0639 12.626C94.6455 13.1689 94.9877 13.9206 95.015 14.7158C95.0424 15.5109 94.7528 16.2844 94.2099 16.866L47.9079 66.45C47.3633 67.0245 46.6137 67.3604 45.8224 67.3846C45.0312 67.4088 44.2625 67.1192 43.6838 66.579C43.1051 66.0389 42.7633 65.2919 42.733 64.5009C42.7027 63.7098 42.9863 62.9389 43.5219 62.356L87.7859 14.966L79.9599 7.658L37.7999 52.8C37.5022 53.1188 37.1386 53.3687 36.7344 53.5326C36.3302 53.6964 35.8951 53.7701 35.4595 53.7486C35.0239 53.7271 34.5982 53.6109 34.2121 53.408C33.826 53.2051 33.4888 52.9205 33.2239 52.574L16.6839 30.926L8.17994 37.43L36.7219 74.758C37.0616 75.2023 37.2703 75.7326 37.3245 76.2891C37.3787 76.8457 37.2763 77.4063 37.0288 77.9078C36.7813 78.4092 36.3985 78.8315 35.9238 79.127C35.449 79.4225 34.9011 79.5794 34.3419 79.58V79.58Z" fill="url(#paint0_linear_58_1494)"/>
<defs>
<linearGradient id="paint0_linear_58_1494" x1="48.0011" y1="0.419128" x2="48.0011" y2="79.58" gradientUnits="userSpaceOnUse">
<stop stop-color="#3ACCC3"/>
<stop offset="1" stop-color="#1B808A"/>
</linearGradient>
</defs>
</svg>
