<svg width="30" height="30" viewBox="0 0 30 30" fill="none" xmlns="http://www.w3.org/2000/svg">
<path fill-rule="evenodd" clip-rule="evenodd" d="M15.0053 0.33065C6.92004 0.33065 0.328125 6.91323 0.328125 14.9971C0.328125 23.081 6.92137 29.6716 15.0053 29.6716C23.0892 29.6716 29.6691 23.081 29.6691 14.9971C29.6691 6.91323 23.0892 0.33065 15.0053 0.33065V0.33065ZM15.0053 2.99728C16.5817 2.99465 18.1432 3.30325 19.6001 3.9054C21.0571 4.50755 22.3808 5.39139 23.4954 6.50624C24.61 7.62109 25.4935 8.94501 26.0954 10.4021C26.6972 11.8591 27.0054 13.4207 27.0025 14.9971C27.0056 16.574 26.6975 18.136 26.0959 19.5936C25.4942 21.0512 24.6108 22.3757 23.4963 23.4912C22.3817 24.6068 21.058 25.4913 19.6009 26.0943C18.1439 26.6973 16.5822 27.0067 15.0053 27.005C13.4277 27.0069 11.8653 26.6977 10.4074 26.0949C8.9495 25.4922 7.62482 24.6078 6.5092 23.4924C5.39357 22.377 4.5089 21.0526 3.90584 19.5948C3.30278 18.1371 2.99318 16.5747 2.99476 14.9971C2.99476 8.35455 8.36269 2.99728 15.0053 2.99728V2.99728ZM14.9839 5.64525C14.8077 5.64698 14.6336 5.68363 14.4716 5.75308C14.3096 5.82253 14.163 5.92341 14.0402 6.04988C13.9175 6.17635 13.821 6.3259 13.7564 6.48988C13.6919 6.65386 13.6604 6.82902 13.664 7.00523V14.9971C13.6647 15.1726 13.7001 15.3462 13.768 15.5079C13.836 15.6697 13.9352 15.8164 14.0599 15.9398L19.3932 21.2757C19.5166 21.4027 19.664 21.5038 19.8268 21.5732C19.9897 21.6425 20.1647 21.6788 20.3418 21.6798C20.5188 21.6808 20.6942 21.6466 20.8579 21.5791C21.0215 21.5116 21.1701 21.4122 21.2949 21.2866C21.4197 21.1611 21.5183 21.012 21.5848 20.848C21.6514 20.684 21.6847 20.5083 21.6826 20.3313C21.6806 20.1543 21.6434 19.9795 21.5731 19.817C21.5028 19.6546 21.4008 19.5077 21.2732 19.3851L16.3333 14.4451V7.00523C16.3368 6.82655 16.3045 6.64897 16.2381 6.48305C16.1717 6.31713 16.0726 6.16626 15.9467 6.03939C15.8208 5.91252 15.6707 5.81225 15.5053 5.74454C15.34 5.67684 15.1626 5.64307 14.9839 5.64525Z" fill="#255997"/>
</svg>
