<svg width="1512" height="84" viewBox="0 0 1512 84" fill="none" xmlns="http://www.w3.org/2000/svg">
<rect width="1512" height="84" fill="white"/>
<path d="M338.26 45.208C336.94 45.76 335.656 46.168 334.408 46.432C333.16 46.696 331.948 46.828 330.772 46.828C327.556 46.828 325.072 46.06 323.32 44.524C321.592 42.964 320.728 40.732 320.728 37.828V29.8H325.372V37.324C325.372 39.1 325.888 40.456 326.92 41.392C327.952 42.328 329.428 42.796 331.348 42.796C332.5 42.796 333.652 42.664 334.804 42.4C335.98 42.136 337.108 41.728 338.188 41.176L338.26 45.208ZM337.54 55V29.8H342.184V55H337.54ZM352.739 55V38.512L353.783 39.592H345.971V35.776H363.971V39.592H356.195L357.239 38.512V55H352.739ZM374.959 55.252C372.991 55.252 371.239 54.832 369.703 53.992C368.167 53.128 366.955 51.952 366.067 50.464C365.179 48.976 364.735 47.284 364.735 45.388C364.735 43.468 365.179 41.776 366.067 40.312C366.955 38.824 368.167 37.66 369.703 36.82C371.239 35.98 372.991 35.56 374.959 35.56C376.951 35.56 378.715 35.98 380.251 36.82C381.811 37.66 383.023 38.812 383.887 40.276C384.775 41.74 385.219 43.444 385.219 45.388C385.219 47.284 384.775 48.976 383.887 50.464C383.023 51.952 381.811 53.128 380.251 53.992C378.715 54.832 376.951 55.252 374.959 55.252ZM374.959 51.4C376.063 51.4 377.047 51.16 377.911 50.68C378.775 50.2 379.447 49.504 379.927 48.592C380.431 47.68 380.683 46.612 380.683 45.388C380.683 44.14 380.431 43.072 379.927 42.184C379.447 41.272 378.775 40.576 377.911 40.096C377.047 39.616 376.075 39.376 374.995 39.376C373.891 39.376 372.907 39.616 372.043 40.096C371.203 40.576 370.531 41.272 370.027 42.184C369.523 43.072 369.271 44.14 369.271 45.388C369.271 46.612 369.523 47.68 370.027 48.592C370.531 49.504 371.203 50.2 372.043 50.68C372.907 51.16 373.879 51.4 374.959 51.4ZM403.61 55V38.512L404.654 39.592H396.842V35.776H414.842V39.592H407.066L408.11 38.512V55H403.61ZM437.51 55V35.776H442.01V55H437.51ZM427.466 42.112C429.938 42.112 431.81 42.664 433.082 43.768C434.378 44.872 435.026 46.432 435.026 48.448C435.026 50.536 434.306 52.168 432.866 53.344C431.45 54.496 429.434 55.06 426.818 55.036L418.106 55V35.776H422.606V42.076L427.466 42.112ZM426.422 51.724C427.742 51.748 428.75 51.472 429.446 50.896C430.142 50.32 430.49 49.48 430.49 48.376C430.49 47.272 430.142 46.48 429.446 46C428.774 45.496 427.766 45.232 426.422 45.208L422.606 45.172V51.688L426.422 51.724ZM458.008 55V35.776H476.44V55H471.976V38.548L473.02 39.592H461.464L462.508 38.548V55H458.008ZM491.08 55.252C489.112 55.252 487.36 54.832 485.824 53.992C484.288 53.128 483.076 51.952 482.188 50.464C481.3 48.976 480.856 47.284 480.856 45.388C480.856 43.468 481.3 41.776 482.188 40.312C483.076 38.824 484.288 37.66 485.824 36.82C487.36 35.98 489.112 35.56 491.08 35.56C493.072 35.56 494.836 35.98 496.372 36.82C497.932 37.66 499.144 38.812 500.008 40.276C500.896 41.74 501.34 43.444 501.34 45.388C501.34 47.284 500.896 48.976 500.008 50.464C499.144 51.952 497.932 53.128 496.372 53.992C494.836 54.832 493.072 55.252 491.08 55.252ZM491.08 51.4C492.184 51.4 493.168 51.16 494.032 50.68C494.896 50.2 495.568 49.504 496.048 48.592C496.552 47.68 496.804 46.612 496.804 45.388C496.804 44.14 496.552 43.072 496.048 42.184C495.568 41.272 494.896 40.576 494.032 40.096C493.168 39.616 492.196 39.376 491.116 39.376C490.012 39.376 489.028 39.616 488.164 40.096C487.324 40.576 486.652 41.272 486.148 42.184C485.644 43.072 485.392 44.14 485.392 45.388C485.392 46.612 485.644 47.68 486.148 48.592C486.652 49.504 487.324 50.2 488.164 50.68C489.028 51.16 490 51.4 491.08 51.4ZM502.767 54.964L502.983 51.184C503.151 51.208 503.307 51.232 503.451 51.256C503.595 51.28 503.727 51.292 503.847 51.292C504.591 51.292 505.167 51.064 505.575 50.608C505.983 50.152 506.283 49.54 506.475 48.772C506.691 47.98 506.835 47.104 506.907 46.144C507.003 45.16 507.075 44.176 507.123 43.192L507.447 35.776H522.999V55H518.499V38.368L519.543 39.592H510.399L511.371 38.332L511.119 43.408C511.047 45.112 510.903 46.696 510.687 48.16C510.495 49.6 510.183 50.86 509.751 51.94C509.343 53.02 508.767 53.86 508.023 54.46C507.303 55.06 506.379 55.36 505.251 55.36C504.891 55.36 504.495 55.324 504.063 55.252C503.655 55.18 503.223 55.084 502.767 54.964ZM530.787 62.236C529.851 62.236 528.915 62.08 527.979 61.768C527.043 61.456 526.263 61.024 525.639 60.472L527.439 57.16C527.895 57.568 528.411 57.892 528.987 58.132C529.563 58.372 530.151 58.492 530.751 58.492C531.567 58.492 532.227 58.288 532.731 57.88C533.235 57.472 533.703 56.788 534.135 55.828L535.251 53.308L535.611 52.768L542.883 35.776H547.203L538.203 56.548C537.603 57.988 536.931 59.128 536.187 59.968C535.467 60.808 534.651 61.396 533.739 61.732C532.851 62.068 531.867 62.236 530.787 62.236ZM534.747 55.684L526.071 35.776H530.751L537.807 52.372L534.747 55.684ZM562.461 47.404C561.549 47.836 560.577 48.196 559.545 48.484C558.537 48.748 557.469 48.88 556.341 48.88C553.917 48.88 552.033 48.316 550.689 47.188C549.345 46.06 548.673 44.308 548.673 41.932V35.776H553.173V41.644C553.173 42.916 553.533 43.84 554.253 44.416C554.997 44.992 556.017 45.28 557.313 45.28C558.177 45.28 559.041 45.172 559.905 44.956C560.769 44.74 561.621 44.44 562.461 44.056V47.404ZM562.137 55V35.776H566.637V55H562.137ZM572.688 55V35.776H577.188V48.448L587.808 35.776H591.912V55H587.412V42.328L576.828 55H572.688ZM610.889 51.184L609.917 52.264V35.776H614.417V52.264L613.337 51.184H622.841L621.797 52.264V35.776H626.297V55H597.965V35.776H602.465V52.264L601.421 51.184H610.889ZM641.996 42.112C644.468 42.112 646.352 42.664 647.648 43.768C648.944 44.872 649.592 46.432 649.592 48.448C649.592 50.536 648.872 52.168 647.432 53.344C645.992 54.496 643.964 55.06 641.348 55.036L632.348 55V35.776H636.848V42.076L641.996 42.112ZM640.952 51.724C642.272 51.748 643.28 51.472 643.976 50.896C644.672 50.32 645.02 49.48 645.02 48.376C645.02 47.272 644.672 46.48 643.976 46C643.304 45.496 642.296 45.232 640.952 45.208L636.848 45.172V51.688L640.952 51.724ZM663.497 55V35.776H681.929V55H677.465V38.548L678.509 39.592H666.953L667.997 38.548V55H663.497ZM696.569 55.252C694.601 55.252 692.849 54.832 691.313 53.992C689.777 53.128 688.565 51.952 687.677 50.464C686.789 48.976 686.345 47.284 686.345 45.388C686.345 43.468 686.789 41.776 687.677 40.312C688.565 38.824 689.777 37.66 691.313 36.82C692.849 35.98 694.601 35.56 696.569 35.56C698.561 35.56 700.325 35.98 701.861 36.82C703.421 37.66 704.633 38.812 705.497 40.276C706.385 41.74 706.829 43.444 706.829 45.388C706.829 47.284 706.385 48.976 705.497 50.464C704.633 51.952 703.421 53.128 701.861 53.992C700.325 54.832 698.561 55.252 696.569 55.252ZM696.569 51.4C697.673 51.4 698.657 51.16 699.521 50.68C700.385 50.2 701.057 49.504 701.537 48.592C702.041 47.68 702.293 46.612 702.293 45.388C702.293 44.14 702.041 43.072 701.537 42.184C701.057 41.272 700.385 40.576 699.521 40.096C698.657 39.616 697.685 39.376 696.605 39.376C695.501 39.376 694.517 39.616 693.653 40.096C692.813 40.576 692.141 41.272 691.637 42.184C691.133 43.072 690.881 44.14 690.881 45.388C690.881 46.612 691.133 47.68 691.637 48.592C692.141 49.504 692.813 50.2 693.653 50.68C694.517 51.16 695.489 51.4 696.569 51.4ZM720.022 55.252C718.006 55.252 716.206 54.832 714.622 53.992C713.062 53.128 711.838 51.952 710.95 50.464C710.062 48.976 709.618 47.284 709.618 45.388C709.618 43.468 710.062 41.776 710.95 40.312C711.838 38.824 713.062 37.66 714.622 36.82C716.206 35.98 718.006 35.56 720.022 35.56C721.894 35.56 723.538 35.944 724.954 36.712C726.394 37.456 727.486 38.56 728.23 40.024L724.774 42.04C724.198 41.128 723.49 40.456 722.65 40.024C721.834 39.592 720.946 39.376 719.986 39.376C718.882 39.376 717.886 39.616 716.998 40.096C716.11 40.576 715.414 41.272 714.91 42.184C714.406 43.072 714.154 44.14 714.154 45.388C714.154 46.636 714.406 47.716 714.91 48.628C715.414 49.516 716.11 50.2 716.998 50.68C717.886 51.16 718.882 51.4 719.986 51.4C720.946 51.4 721.834 51.184 722.65 50.752C723.49 50.32 724.198 49.648 724.774 48.736L728.23 50.752C727.486 52.192 726.394 53.308 724.954 54.1C723.538 54.868 721.894 55.252 720.022 55.252ZM728.927 54.964L729.143 51.184C729.311 51.208 729.467 51.232 729.611 51.256C729.755 51.28 729.887 51.292 730.007 51.292C730.751 51.292 731.327 51.064 731.735 50.608C732.143 50.152 732.443 49.54 732.635 48.772C732.851 47.98 732.995 47.104 733.067 46.144C733.163 45.16 733.235 44.176 733.283 43.192L733.607 35.776H749.159V55H744.659V38.368L745.703 39.592H736.559L737.531 38.332L737.279 43.408C737.207 45.112 737.063 46.696 736.847 48.16C736.655 49.6 736.343 50.86 735.911 51.94C735.503 53.02 734.927 53.86 734.183 54.46C733.463 55.06 732.539 55.36 731.411 55.36C731.051 55.36 730.655 55.324 730.223 55.252C729.815 55.18 729.383 55.084 728.927 54.964ZM764.183 55.252C762.047 55.252 760.175 54.832 758.567 53.992C756.983 53.128 755.747 51.952 754.859 50.464C753.995 48.976 753.563 47.284 753.563 45.388C753.563 43.468 753.983 41.776 754.823 40.312C755.687 38.824 756.863 37.66 758.351 36.82C759.863 35.98 761.579 35.56 763.499 35.56C765.371 35.56 767.039 35.968 768.503 36.784C769.967 37.6 771.119 38.752 771.959 40.24C772.799 41.728 773.219 43.48 773.219 45.496C773.219 45.688 773.207 45.904 773.183 46.144C773.183 46.384 773.171 46.612 773.147 46.828H757.127V43.84H770.771L769.007 44.776C769.031 43.672 768.803 42.7 768.323 41.86C767.843 41.02 767.183 40.36 766.343 39.88C765.527 39.4 764.579 39.16 763.499 39.16C762.395 39.16 761.423 39.4 760.583 39.88C759.767 40.36 759.119 41.032 758.639 41.896C758.183 42.736 757.955 43.732 757.955 44.884V45.604C757.955 46.756 758.219 47.776 758.747 48.664C759.275 49.552 760.019 50.236 760.979 50.716C761.939 51.196 763.043 51.436 764.291 51.436C765.371 51.436 766.343 51.268 767.207 50.932C768.071 50.596 768.839 50.068 769.511 49.348L771.923 52.12C771.059 53.128 769.967 53.908 768.647 54.46C767.351 54.988 765.863 55.252 764.183 55.252ZM788.09 55V35.776H806.522V55H802.058V38.548L803.102 39.592H791.546L792.59 38.548V55H788.09ZM823.25 55.252C821.69 55.252 820.262 54.892 818.966 54.172C817.694 53.452 816.674 52.372 815.906 50.932C815.162 49.468 814.79 47.62 814.79 45.388C814.79 43.132 815.15 41.284 815.87 39.844C816.614 38.404 817.622 37.336 818.894 36.64C820.166 35.92 821.618 35.56 823.25 35.56C825.146 35.56 826.814 35.968 828.254 36.784C829.718 37.6 830.87 38.74 831.71 40.204C832.574 41.668 833.006 43.396 833.006 45.388C833.006 47.38 832.574 49.12 831.71 50.608C830.87 52.072 829.718 53.212 828.254 54.028C826.814 54.844 825.146 55.252 823.25 55.252ZM812.594 61.984V35.776H816.878V40.312L816.734 45.424L817.094 50.536V61.984H812.594ZM822.746 51.4C823.826 51.4 824.786 51.16 825.626 50.68C826.49 50.2 827.174 49.504 827.678 48.592C828.182 47.68 828.434 46.612 828.434 45.388C828.434 44.14 828.182 43.072 827.678 42.184C827.174 41.272 826.49 40.576 825.626 40.096C824.786 39.616 823.826 39.376 822.746 39.376C821.666 39.376 820.694 39.616 819.83 40.096C818.966 40.576 818.282 41.272 817.778 42.184C817.274 43.072 817.022 44.14 817.022 45.388C817.022 46.612 817.274 47.68 817.778 48.592C818.282 49.504 818.966 50.2 819.83 50.68C820.694 51.16 821.666 51.4 822.746 51.4ZM846.053 55.252C844.085 55.252 842.333 54.832 840.797 53.992C839.261 53.128 838.049 51.952 837.161 50.464C836.273 48.976 835.829 47.284 835.829 45.388C835.829 43.468 836.273 41.776 837.161 40.312C838.049 38.824 839.261 37.66 840.797 36.82C842.333 35.98 844.085 35.56 846.053 35.56C848.045 35.56 849.809 35.98 851.345 36.82C852.905 37.66 854.117 38.812 854.981 40.276C855.869 41.74 856.313 43.444 856.313 45.388C856.313 47.284 855.869 48.976 854.981 50.464C854.117 51.952 852.905 53.128 851.345 53.992C849.809 54.832 848.045 55.252 846.053 55.252ZM846.053 51.4C847.157 51.4 848.141 51.16 849.005 50.68C849.869 50.2 850.541 49.504 851.021 48.592C851.525 47.68 851.777 46.612 851.777 45.388C851.777 44.14 851.525 43.072 851.021 42.184C850.541 41.272 849.869 40.576 849.005 40.096C848.141 39.616 847.169 39.376 846.089 39.376C844.985 39.376 844.001 39.616 843.137 40.096C842.297 40.576 841.625 41.272 841.121 42.184C840.617 43.072 840.365 44.14 840.365 45.388C840.365 46.612 840.617 47.68 841.121 48.592C841.625 49.504 842.297 50.2 843.137 50.68C844.001 51.16 844.973 51.4 846.053 51.4ZM857.282 55L865.742 43.984L865.67 46.396L857.606 35.776H862.61L868.262 43.336H866.354L872.042 35.776H876.902L868.766 46.396L868.802 43.984L877.226 55H872.15L866.21 46.972L868.082 47.224L862.25 55H857.282ZM888.381 55.252C886.413 55.252 884.661 54.832 883.125 53.992C881.589 53.128 880.377 51.952 879.489 50.464C878.601 48.976 878.157 47.284 878.157 45.388C878.157 43.468 878.601 41.776 879.489 40.312C880.377 38.824 881.589 37.66 883.125 36.82C884.661 35.98 886.413 35.56 888.381 35.56C890.373 35.56 892.137 35.98 893.673 36.82C895.233 37.66 896.445 38.812 897.309 40.276C898.197 41.74 898.641 43.444 898.641 45.388C898.641 47.284 898.197 48.976 897.309 50.464C896.445 51.952 895.233 53.128 893.673 53.992C892.137 54.832 890.373 55.252 888.381 55.252ZM888.381 51.4C889.485 51.4 890.469 51.16 891.333 50.68C892.197 50.2 892.869 49.504 893.349 48.592C893.853 47.68 894.105 46.612 894.105 45.388C894.105 44.14 893.853 43.072 893.349 42.184C892.869 41.272 892.197 40.576 891.333 40.096C890.469 39.616 889.497 39.376 888.417 39.376C887.313 39.376 886.329 39.616 885.465 40.096C884.625 40.576 883.953 41.272 883.449 42.184C882.945 43.072 882.693 44.14 882.693 45.388C882.693 46.612 882.945 47.68 883.449 48.592C883.953 49.504 884.625 50.2 885.465 50.68C886.329 51.16 887.301 51.4 888.381 51.4ZM925.386 55L919.77 45.784L923.442 43.516L930.75 55H925.386ZM916.134 47.296V43.552H922.578V47.296H916.134ZM923.874 45.928L919.626 45.424L925.458 35.776H930.246L923.874 45.928ZM905.082 55H899.754L907.026 43.516L910.698 45.784L905.082 55ZM917.466 55H913.002V35.776H917.466V55ZM914.334 47.296H907.926V43.552H914.334V47.296ZM906.594 45.928L900.222 35.776H905.01L910.806 45.424L906.594 45.928ZM947.27 52.912V39.592H939.89L939.782 42.688C939.734 43.792 939.662 44.86 939.566 45.892C939.47 46.9 939.314 47.836 939.098 48.7C938.882 49.54 938.57 50.236 938.162 50.788C937.754 51.34 937.214 51.7 936.542 51.868L932.078 51.184C932.798 51.184 933.374 50.956 933.806 50.5C934.262 50.02 934.61 49.372 934.85 48.556C935.114 47.716 935.306 46.768 935.426 45.712C935.546 44.632 935.63 43.516 935.678 42.364L935.93 35.776H951.77V52.912H947.27ZM931.394 59.284V51.184H954.614V59.284H950.402V55H935.57V59.284H931.394ZM967.597 55.252C965.461 55.252 963.589 54.832 961.981 53.992C960.397 53.128 959.161 51.952 958.273 50.464C957.409 48.976 956.977 47.284 956.977 45.388C956.977 43.468 957.397 41.776 958.237 40.312C959.101 38.824 960.277 37.66 961.765 36.82C963.277 35.98 964.993 35.56 966.913 35.56C968.785 35.56 970.453 35.968 971.917 36.784C973.381 37.6 974.533 38.752 975.373 40.24C976.213 41.728 976.633 43.48 976.633 45.496C976.633 45.688 976.621 45.904 976.597 46.144C976.597 46.384 976.585 46.612 976.561 46.828H960.541V43.84H974.185L972.421 44.776C972.445 43.672 972.217 42.7 971.737 41.86C971.257 41.02 970.597 40.36 969.757 39.88C968.941 39.4 967.993 39.16 966.913 39.16C965.809 39.16 964.837 39.4 963.997 39.88C963.181 40.36 962.533 41.032 962.053 41.896C961.597 42.736 961.369 43.732 961.369 44.884V45.604C961.369 46.756 961.633 47.776 962.161 48.664C962.689 49.552 963.433 50.236 964.393 50.716C965.353 51.196 966.457 51.436 967.705 51.436C968.785 51.436 969.757 51.268 970.621 50.932C971.485 50.596 972.253 50.068 972.925 49.348L975.337 52.12C974.473 53.128 973.381 53.908 972.061 54.46C970.765 54.988 969.277 55.252 967.597 55.252ZM981.555 55V35.776H986.055V43.588H995.739V35.776H1000.24V55H995.739V47.404H986.055V55H981.555ZM1006.27 55V35.776H1010.77V48.448L1021.39 35.776H1025.49V55H1020.99V42.328L1010.41 55H1006.27ZM1043.75 55V48.448L1044.4 49.204H1038.64C1036 49.204 1033.92 48.652 1032.41 47.548C1030.92 46.42 1030.18 44.8 1030.18 42.688C1030.18 40.432 1030.97 38.716 1032.56 37.54C1034.16 36.364 1036.3 35.776 1038.96 35.776H1047.78V55H1043.75ZM1029.93 55L1035.11 47.656H1039.72L1034.75 55H1029.93ZM1043.75 47.008V38.368L1044.4 39.556H1039.11C1037.72 39.556 1036.64 39.82 1035.87 40.348C1035.12 40.852 1034.75 41.68 1034.75 42.832C1034.75 44.992 1036.16 46.072 1038.96 46.072H1044.4L1043.75 47.008ZM1077.57 55L1070.63 45.784L1074.3 43.516L1082.87 55H1077.57ZM1063.79 55V35.776H1068.29V55H1063.79ZM1066.95 47.296V43.552H1073.47V47.296H1066.95ZM1074.73 45.928L1070.52 45.424L1077.57 35.776H1082.4L1074.73 45.928ZM1086.68 62.236C1085.74 62.236 1084.81 62.08 1083.87 61.768C1082.93 61.456 1082.15 61.024 1081.53 60.472L1083.33 57.16C1083.79 57.568 1084.3 57.892 1084.88 58.132C1085.45 58.372 1086.04 58.492 1086.64 58.492C1087.46 58.492 1088.12 58.288 1088.62 57.88C1089.13 57.472 1089.59 56.788 1090.03 55.828L1091.14 53.308L1091.5 52.768L1098.77 35.776H1103.09L1094.09 56.548C1093.49 57.988 1092.82 59.128 1092.08 59.968C1091.36 60.808 1090.54 61.396 1089.63 61.732C1088.74 62.068 1087.76 62.236 1086.68 62.236ZM1090.64 55.684L1081.96 35.776H1086.64L1093.7 52.372L1090.64 55.684ZM1116.88 55.252C1115.32 55.252 1113.89 54.892 1112.59 54.172C1111.32 53.452 1110.3 52.372 1109.53 50.932C1108.79 49.468 1108.42 47.62 1108.42 45.388C1108.42 43.132 1108.78 41.284 1109.5 39.844C1110.24 38.404 1111.25 37.336 1112.52 36.64C1113.79 35.92 1115.24 35.56 1116.88 35.56C1118.77 35.56 1120.44 35.968 1121.88 36.784C1123.34 37.6 1124.5 38.74 1125.34 40.204C1126.2 41.668 1126.63 43.396 1126.63 45.388C1126.63 47.38 1126.2 49.12 1125.34 50.608C1124.5 52.072 1123.34 53.212 1121.88 54.028C1120.44 54.844 1118.77 55.252 1116.88 55.252ZM1106.22 61.984V35.776H1110.5V40.312L1110.36 45.424L1110.72 50.536V61.984H1106.22ZM1116.37 51.4C1117.45 51.4 1118.41 51.16 1119.25 50.68C1120.12 50.2 1120.8 49.504 1121.3 48.592C1121.81 47.68 1122.06 46.612 1122.06 45.388C1122.06 44.14 1121.81 43.072 1121.3 42.184C1120.8 41.272 1120.12 40.576 1119.25 40.096C1118.41 39.616 1117.45 39.376 1116.37 39.376C1115.29 39.376 1114.32 39.616 1113.46 40.096C1112.59 40.576 1111.91 41.272 1111.4 42.184C1110.9 43.072 1110.65 44.14 1110.65 45.388C1110.65 46.612 1110.9 47.68 1111.4 48.592C1111.91 49.504 1112.59 50.2 1113.46 50.68C1114.32 51.16 1115.29 51.4 1116.37 51.4ZM1139.86 55.252C1137.84 55.252 1136.04 54.832 1134.46 53.992C1132.9 53.128 1131.67 51.952 1130.79 50.464C1129.9 48.976 1129.45 47.284 1129.45 45.388C1129.45 43.468 1129.9 41.776 1130.79 40.312C1131.67 38.824 1132.9 37.66 1134.46 36.82C1136.04 35.98 1137.84 35.56 1139.86 35.56C1141.73 35.56 1143.37 35.944 1144.79 36.712C1146.23 37.456 1147.32 38.56 1148.07 40.024L1144.61 42.04C1144.03 41.128 1143.33 40.456 1142.49 40.024C1141.67 39.592 1140.78 39.376 1139.82 39.376C1138.72 39.376 1137.72 39.616 1136.83 40.096C1135.95 40.576 1135.25 41.272 1134.75 42.184C1134.24 43.072 1133.99 44.14 1133.99 45.388C1133.99 46.636 1134.24 47.716 1134.75 48.628C1135.25 49.516 1135.95 50.2 1136.83 50.68C1137.72 51.16 1138.72 51.4 1139.82 51.4C1140.78 51.4 1141.67 51.184 1142.49 50.752C1143.33 50.32 1144.03 49.648 1144.61 48.736L1148.07 50.752C1147.32 52.192 1146.23 53.308 1144.79 54.1C1143.37 54.868 1141.73 55.252 1139.86 55.252ZM1163.69 55V51.112L1163.44 50.284V43.48C1163.44 42.16 1163.04 41.14 1162.25 40.42C1161.46 39.676 1160.26 39.304 1158.65 39.304C1157.57 39.304 1156.5 39.472 1155.45 39.808C1154.42 40.144 1153.54 40.612 1152.82 41.212L1151.06 37.936C1152.09 37.144 1153.31 36.556 1154.73 36.172C1156.17 35.764 1157.66 35.56 1159.19 35.56C1161.98 35.56 1164.12 36.232 1165.64 37.576C1167.17 38.896 1167.94 40.948 1167.94 43.732V55H1163.69ZM1157.64 55.252C1156.2 55.252 1154.94 55.012 1153.86 54.532C1152.78 54.028 1151.94 53.344 1151.34 52.48C1150.77 51.592 1150.48 50.596 1150.48 49.492C1150.48 48.412 1150.73 47.44 1151.24 46.576C1151.76 45.712 1152.62 45.028 1153.79 44.524C1154.97 44.02 1156.53 43.768 1158.47 43.768H1164.05V46.756H1158.8C1157.26 46.756 1156.23 47.008 1155.7 47.512C1155.17 47.992 1154.91 48.592 1154.91 49.312C1154.91 50.128 1155.23 50.776 1155.88 51.256C1156.53 51.736 1157.43 51.976 1158.58 51.976C1159.68 51.976 1160.67 51.724 1161.53 51.22C1162.42 50.716 1163.06 49.972 1163.44 48.988L1164.2 51.688C1163.76 52.816 1162.98 53.692 1161.86 54.316C1160.75 54.94 1159.35 55.252 1157.64 55.252ZM1179.18 46.648C1179.18 45.76 1179.32 44.98 1179.61 44.308C1179.9 43.636 1180.27 43.036 1180.73 42.508C1181.18 41.98 1181.66 41.488 1182.17 41.032C1182.7 40.576 1183.19 40.132 1183.64 39.7C1184.1 39.268 1184.47 38.812 1184.76 38.332C1185.05 37.852 1185.19 37.312 1185.19 36.712C1185.19 35.704 1184.78 34.888 1183.97 34.264C1183.15 33.64 1182.06 33.328 1180.69 33.328C1179.37 33.328 1178.22 33.568 1177.24 34.048C1176.28 34.528 1175.47 35.212 1174.82 36.1L1171.33 33.832C1172.34 32.464 1173.66 31.396 1175.29 30.628C1176.92 29.836 1178.86 29.44 1181.09 29.44C1182.84 29.44 1184.38 29.704 1185.7 30.232C1187.02 30.736 1188.05 31.48 1188.79 32.464C1189.54 33.424 1189.91 34.6 1189.91 35.992C1189.91 36.952 1189.75 37.792 1189.44 38.512C1189.15 39.232 1188.77 39.868 1188.29 40.42C1187.83 40.948 1187.34 41.452 1186.81 41.932C1186.28 42.388 1185.78 42.844 1185.3 43.3C1184.84 43.756 1184.47 44.248 1184.18 44.776C1183.9 45.304 1183.75 45.928 1183.75 46.648H1179.18ZM1181.48 55.252C1180.64 55.252 1179.95 54.976 1179.4 54.424C1178.87 53.872 1178.6 53.212 1178.6 52.444C1178.6 51.676 1178.87 51.028 1179.4 50.5C1179.95 49.948 1180.64 49.672 1181.48 49.672C1182.32 49.672 1183.01 49.948 1183.54 50.5C1184.06 51.028 1184.33 51.676 1184.33 52.444C1184.33 53.212 1184.06 53.872 1183.54 54.424C1183.01 54.976 1182.32 55.252 1181.48 55.252Z" fill="#394F82"/>
</svg>
